<svg xmlns="http://www.w3.org/2000/svg" viewBox="0 0 1200 630" fill="none">
  <!-- Background -->
  <rect width="1200" height="630" fill="#0a0a0a"/>
  <!-- Orange accent bar -->
  <rect width="1200" height="6" fill="#ff6b00"/>
  <!-- Orange accent bar bottom -->
  <rect y="624" width="1200" height="6" fill="#ff6b00"/>

  <!-- Logo circle -->
  <circle cx="140" cy="315" r="80" fill="#ff6b00"/>
  <!-- Wrench icon in circle -->
  <path d="M168 282c-8.8 0-16 7.2-16 16 0 2.2.4 4.2 1.2 6L127 330.8l-1.2-1.2a4 4 0 0 0-5.6 0l-8 8a4 4 0 0 0 0 5.6l9.6 9.6a4 4 0 0 0 5.6 0l8-8a4 4 0 0 0 0-5.6l-1.2-1.2L160 311.2c1.8.8 3.8 1.2 6 1.2 8.8 0 16-7.2 16-16 0-2-.4-4-1-5.8l-9 9-6-6 9-9c-1.8-.6-3.8-1-5.8-1h-.2z" fill="white"/>

  <!-- Main heading -->
  <text x="260" y="270" font-family="system-ui, -apple-system, sans-serif" font-weight="700" font-size="72" fill="white">Mobilní autoservis</text>
  <!-- Name -->
  <text x="260" y="355" font-family="system-ui, -apple-system, sans-serif" font-weight="700" font-size="56" fill="#ff6b00">Václav Paták</text>
  <!-- Tagline -->
  <text x="260" y="430" font-family="system-ui, -apple-system, sans-serif" font-weight="400" font-size="36" fill="#999999">Servis přímo u vás — diagnostika, opravy, výjezd</text>

  <!-- Keywords row -->
  <rect x="260" y="470" width="680" height="2" fill="#333333"/>
  <text x="260" y="510" font-family="system-ui, -apple-system, sans-serif" font-size="28" fill="#666666">mobilní autoservis  ·  autodiagnostika  ·  opravy vozidel  ·  Ústecký kraj</text>
</svg>
